<mxfile host="app.diagrams.net" modified="2024-06-19T18:25:54.903Z" agent="Mozilla/5.0 (Windows NT 10.0; Win64; x64) AppleWebKit/537.36 (KHTML, like Gecko) Chrome/123.0.0.0 Safari/537.36 OPR/109.0.0.0" etag="dy7RMsTQPPm95YgHSn7_" version="24.5.5" type="github">
  <diagram id="C5RBs43oDa-KdzZeNtuy" name="Page-1">
    <mxGraphModel dx="839" dy="446" grid="1" gridSize="10" guides="1" tooltips="1" connect="1" arrows="1" fold="1" page="1" pageScale="1" pageWidth="827" pageHeight="1169" math="0" shadow="0">
      <root>
        <mxCell id="WIyWlLk6GJQsqaUBKTNV-0" />
        <mxCell id="WIyWlLk6GJQsqaUBKTNV-1" parent="WIyWlLk6GJQsqaUBKTNV-0" />
        <mxCell id="zkfFHV4jXpPFQw0GAbJ--0" value="Livro" style="swimlane;fontStyle=2;align=center;verticalAlign=top;childLayout=stackLayout;horizontal=1;startSize=26;horizontalStack=0;resizeParent=1;resizeLast=0;collapsible=1;marginBottom=0;rounded=0;shadow=0;strokeWidth=1;" parent="WIyWlLk6GJQsqaUBKTNV-1" vertex="1">
          <mxGeometry x="50" y="120" width="160" height="180" as="geometry">
            <mxRectangle x="230" y="140" width="160" height="26" as="alternateBounds" />
          </mxGeometry>
        </mxCell>
        <mxCell id="zkfFHV4jXpPFQw0GAbJ--2" value="- titulo: String&#xa;- autor: String &#xa; - quantidade: int" style="text;align=left;verticalAlign=top;spacingLeft=4;spacingRight=4;overflow=hidden;rotatable=0;points=[[0,0.5],[1,0.5]];portConstraint=eastwest;rounded=0;shadow=0;html=0;" parent="zkfFHV4jXpPFQw0GAbJ--0" vertex="1">
          <mxGeometry y="26" width="160" height="54" as="geometry" />
        </mxCell>
        <mxCell id="zkfFHV4jXpPFQw0GAbJ--4" value="" style="line;html=1;strokeWidth=1;align=left;verticalAlign=middle;spacingTop=-1;spacingLeft=3;spacingRight=3;rotatable=0;labelPosition=right;points=[];portConstraint=eastwest;" parent="zkfFHV4jXpPFQw0GAbJ--0" vertex="1">
          <mxGeometry y="80" width="160" height="8" as="geometry" />
        </mxCell>
        <mxCell id="zkfFHV4jXpPFQw0GAbJ--5" value=" Livro(String, String, int)&#xa;-  getTitulo(): String &#xa;- getAutor(): String &#xa;-  getQuantidade(): int &#xa;-  setQuantidade(int): void&#xa; - toString(): String" style="text;align=left;verticalAlign=top;spacingLeft=4;spacingRight=4;overflow=hidden;rotatable=0;points=[[0,0.5],[1,0.5]];portConstraint=eastwest;" parent="zkfFHV4jXpPFQw0GAbJ--0" vertex="1">
          <mxGeometry y="88" width="160" height="92" as="geometry" />
        </mxCell>
        <mxCell id="zkfFHV4jXpPFQw0GAbJ--6" value="Beneficario" style="swimlane;fontStyle=0;align=center;verticalAlign=top;childLayout=stackLayout;horizontal=1;startSize=26;horizontalStack=0;resizeParent=1;resizeLast=0;collapsible=1;marginBottom=0;rounded=0;shadow=0;strokeWidth=1;" parent="WIyWlLk6GJQsqaUBKTNV-1" vertex="1">
          <mxGeometry x="40" y="560" width="250" height="190" as="geometry">
            <mxRectangle x="130" y="380" width="160" height="26" as="alternateBounds" />
          </mxGeometry>
        </mxCell>
        <mxCell id="zkfFHV4jXpPFQw0GAbJ--7" value=" nome: String &#xa;- livrosRecebidos: ArrayList&lt;Livro&gt;" style="text;align=left;verticalAlign=top;spacingLeft=4;spacingRight=4;overflow=hidden;rotatable=0;points=[[0,0.5],[1,0.5]];portConstraint=eastwest;" parent="zkfFHV4jXpPFQw0GAbJ--6" vertex="1">
          <mxGeometry y="26" width="250" height="64" as="geometry" />
        </mxCell>
        <mxCell id="zkfFHV4jXpPFQw0GAbJ--11" value="Beneficiario(String) &#xa;- getNome(): String &#xa;- receberLivro(Livro, int): void &#xa;- getLivrosRecebidos(): ArrayList&lt;Livro&gt; &#xa;- toString(): String" style="text;align=left;verticalAlign=top;spacingLeft=4;spacingRight=4;overflow=hidden;rotatable=0;points=[[0,0.5],[1,0.5]];portConstraint=eastwest;" parent="zkfFHV4jXpPFQw0GAbJ--6" vertex="1">
          <mxGeometry y="90" width="250" height="92" as="geometry" />
        </mxCell>
        <mxCell id="zkfFHV4jXpPFQw0GAbJ--9" value="" style="line;html=1;strokeWidth=1;align=left;verticalAlign=middle;spacingTop=-1;spacingLeft=3;spacingRight=3;rotatable=0;labelPosition=right;points=[];portConstraint=eastwest;" parent="zkfFHV4jXpPFQw0GAbJ--6" vertex="1">
          <mxGeometry y="182" width="250" height="8" as="geometry" />
        </mxCell>
        <mxCell id="zkfFHV4jXpPFQw0GAbJ--17" value="Doacao" style="swimlane;fontStyle=0;align=center;verticalAlign=top;childLayout=stackLayout;horizontal=1;startSize=26;horizontalStack=0;resizeParent=1;resizeLast=0;collapsible=1;marginBottom=0;rounded=0;shadow=0;strokeWidth=1;" parent="WIyWlLk6GJQsqaUBKTNV-1" vertex="1">
          <mxGeometry x="50" y="340" width="160" height="190" as="geometry">
            <mxRectangle x="550" y="140" width="160" height="26" as="alternateBounds" />
          </mxGeometry>
        </mxCell>
        <mxCell id="zkfFHV4jXpPFQw0GAbJ--18" value=" doador: String&#xa; - livro: Livro &#xa; - quantidade: int" style="text;align=left;verticalAlign=top;spacingLeft=4;spacingRight=4;overflow=hidden;rotatable=0;points=[[0,0.5],[1,0.5]];portConstraint=eastwest;" parent="zkfFHV4jXpPFQw0GAbJ--17" vertex="1">
          <mxGeometry y="26" width="160" height="64" as="geometry" />
        </mxCell>
        <mxCell id="zkfFHV4jXpPFQw0GAbJ--23" value="" style="line;html=1;strokeWidth=1;align=left;verticalAlign=middle;spacingTop=-1;spacingLeft=3;spacingRight=3;rotatable=0;labelPosition=right;points=[];portConstraint=eastwest;" parent="zkfFHV4jXpPFQw0GAbJ--17" vertex="1">
          <mxGeometry y="90" width="160" height="8" as="geometry" />
        </mxCell>
        <mxCell id="zkfFHV4jXpPFQw0GAbJ--24" value="Doacao(String, Livro, int)&#xa;- getDoador(): String &#xa; - getLivro(): Livro &#xa;-  getQuantidade(): int   " style="text;align=left;verticalAlign=top;spacingLeft=4;spacingRight=4;overflow=hidden;rotatable=0;points=[[0,0.5],[1,0.5]];portConstraint=eastwest;" parent="zkfFHV4jXpPFQw0GAbJ--17" vertex="1">
          <mxGeometry y="98" width="160" height="92" as="geometry" />
        </mxCell>
        <mxCell id="zkfFHV4jXpPFQw0GAbJ--26" value="" style="endArrow=open;shadow=0;strokeWidth=1;rounded=0;curved=0;endFill=1;edgeStyle=elbowEdgeStyle;elbow=vertical;" parent="WIyWlLk6GJQsqaUBKTNV-1" source="zkfFHV4jXpPFQw0GAbJ--0" target="zkfFHV4jXpPFQw0GAbJ--17" edge="1">
          <mxGeometry x="0.5" y="41" relative="1" as="geometry">
            <mxPoint x="380" y="192" as="sourcePoint" />
            <mxPoint x="540" y="192" as="targetPoint" />
            <mxPoint x="-40" y="32" as="offset" />
          </mxGeometry>
        </mxCell>
        <mxCell id="zkfFHV4jXpPFQw0GAbJ--27" value="0..1" style="resizable=0;align=left;verticalAlign=bottom;labelBackgroundColor=none;fontSize=12;" parent="zkfFHV4jXpPFQw0GAbJ--26" connectable="0" vertex="1">
          <mxGeometry x="-1" relative="1" as="geometry">
            <mxPoint y="4" as="offset" />
          </mxGeometry>
        </mxCell>
        <mxCell id="zkfFHV4jXpPFQw0GAbJ--28" value="1" style="resizable=0;align=right;verticalAlign=bottom;labelBackgroundColor=none;fontSize=12;" parent="zkfFHV4jXpPFQw0GAbJ--26" connectable="0" vertex="1">
          <mxGeometry x="1" relative="1" as="geometry">
            <mxPoint x="-7" y="4" as="offset" />
          </mxGeometry>
        </mxCell>
        <mxCell id="zkfFHV4jXpPFQw0GAbJ--29" value="lives at" style="text;html=1;resizable=0;points=[];;align=center;verticalAlign=middle;labelBackgroundColor=none;rounded=0;shadow=0;strokeWidth=1;fontSize=12;" parent="zkfFHV4jXpPFQw0GAbJ--26" vertex="1" connectable="0">
          <mxGeometry x="0.5" y="49" relative="1" as="geometry">
            <mxPoint x="-38" y="40" as="offset" />
          </mxGeometry>
        </mxCell>
        <mxCell id="F-g1iZo4tE8lH147P08Y-6" value="Sistema Doacao" style="swimlane;fontStyle=0;childLayout=stackLayout;horizontal=1;startSize=30;horizontalStack=0;resizeParent=1;resizeParentMax=0;resizeLast=0;collapsible=1;marginBottom=0;whiteSpace=wrap;html=1;" vertex="1" parent="WIyWlLk6GJQsqaUBKTNV-1">
          <mxGeometry x="40" y="780" width="270" height="190" as="geometry" />
        </mxCell>
        <mxCell id="F-g1iZo4tE8lH147P08Y-9" value="livros: ArrayList&amp;lt;Livro&amp;gt;|&lt;br&gt;&amp;nbsp;- doacoes: ArrayList&amp;lt;Doacao&amp;gt;|&lt;br&gt;&amp;nbsp;- beneficiarios: ArrayList&amp;lt;Beneficiario&amp;gt;" style="text;strokeColor=none;fillColor=none;align=left;verticalAlign=middle;spacingLeft=4;spacingRight=4;overflow=hidden;points=[[0,0.5],[1,0.5]];portConstraint=eastwest;rotatable=0;whiteSpace=wrap;html=1;" vertex="1" parent="F-g1iZo4tE8lH147P08Y-6">
          <mxGeometry y="30" width="270" height="60" as="geometry" />
        </mxCell>
        <mxCell id="F-g1iZo4tE8lH147P08Y-7" value="&lt;div class=&quot;flex-1 overflow-hidden&quot;&gt;&lt;div class=&quot;react-scroll-to-bottom--css-uqhaa-79elbk h-full&quot;&gt;&lt;div class=&quot;react-scroll-to-bottom--css-uqhaa-1n7m0yu&quot;&gt;&lt;div class=&quot;flex flex-col text-sm md:pb-9&quot;&gt;&lt;div data-scroll-anchor=&quot;true&quot; data-testid=&quot;conversation-turn-17&quot; dir=&quot;auto&quot; class=&quot;w-full text-token-text-primary&quot;&gt;&lt;div class=&quot;py-2 juice:py-[18px] px-3 text-base md:px-4 m-auto md:px-5 lg:px-1 xl:px-5&quot;&gt;&lt;div class=&quot;mx-auto flex flex-1 gap-3 text-base juice:gap-4 juice:md:gap-5 juice:lg:gap-6 md:max-w-3xl lg:max-w-[40rem] xl:max-w-[48rem]&quot;&gt;&lt;div class=&quot;group/conversation-turn relative flex w-full min-w-0 flex-col agent-turn&quot;&gt;&lt;div class=&quot;flex-col gap-1 md:gap-3&quot;&gt;&lt;div class=&quot;flex flex-grow flex-col max-w-full&quot;&gt;&lt;div class=&quot;min-h-[20px] text-message flex flex-col items-start whitespace-pre-wrap break-words [.text-message+&amp;amp;]:mt-5 juice:w-full juice:items-end overflow-x-auto gap-2&quot; dir=&quot;auto&quot; data-message-id=&quot;5fab8c96-e63d-41dc-bcf5-cffe056aa022&quot; data-message-author-role=&quot;assistant&quot;&gt;&lt;div class=&quot;flex w-full flex-col gap-1 juice:empty:hidden juice:first:pt-[3px]&quot;&gt;&lt;div class=&quot;markdown prose w-full break-words dark:prose-invert dark&quot;&gt;&lt;pre&gt;&lt;div class=&quot;dark bg-gray-950 rounded-md border-[0.5px] border-token-border-medium&quot;&gt;&lt;div dir=&quot;ltr&quot; class=&quot;overflow-y-auto p-4&quot;&gt;&lt;br&gt; main(String[]): void   &lt;br/&gt; - cadastrarLivro(Scanner): void &lt;br/&gt; - registrarDoacao(Scanner): void&lt;br/&gt; - registrarBeneficiario(Scanner): void&lt;br/&gt; - exibirTotalDoacoes(): void &lt;br&gt;&lt;/div&gt;&lt;/div&gt;&lt;/pre&gt;&lt;/div&gt;&lt;/div&gt;&lt;/div&gt;&lt;/div&gt;&lt;/div&gt;&lt;/div&gt;&lt;/div&gt;&lt;/div&gt;&lt;/div&gt;&lt;/div&gt;&lt;/div&gt;&lt;/div&gt;&lt;/div&gt;&lt;div class=&quot;w-full md:pt-0 dark:border-white/20 md:border-transparent md:dark:border-transparent md:w-[calc(100%-.5rem)] juice:w-full&quot;&gt;&lt;div class=&quot;px-3 text-base md:px-4 m-auto md:px-5 lg:px-1 xl:px-5&quot;&gt;&lt;div class=&quot;mx-auto flex flex-1 gap-3 text-base juice:gap-4 juice:md:gap-5 juice:lg:gap-6 md:max-w-3xl lg:max-w-[40rem] xl:max-w-[48rem]&quot;&gt;&lt;div class=&quot;relative flex h-full max-w-full flex-1 flex-col&quot;&gt;&lt;div class=&quot;flex w-full items-center&quot;&gt;&lt;div class=&quot;flex w-full flex-col gap-1.5 rounded-[26px] p-1.5 transition-colors bg-[#f4f4f4] dark:bg-token-main-surface-secondary&quot;&gt;&lt;div class=&quot;flex items-end gap-1.5 md:gap-2&quot;&gt;&lt;div&gt;&lt;div class=&quot;flex flex-col&quot;&gt;&lt;button class=&quot;text-token-text-primary border border-transparent inline-flex items-center justify-center gap-1 rounded-lg text-sm dark:transparent dark:bg-transparent leading-none outline-none cursor-pointer hover:bg-token-main-surface-secondary dark:hover:bg-token-main-surface-secondary focus-visible:bg-token-main-surface-secondary radix-state-active:text-token-text-secondary radix-disabled:cursor-auto radix-disabled:bg-transparent radix-disabled:text-token-text-tertiary dark:radix-disabled:bg-transparent m-0 h-0 w-0 border-none bg-transparent p-0&quot; data-state=&quot;closed&quot; aria-expanded=&quot;false&quot; aria-haspopup=&quot;menu&quot; id=&quot;radix-:r84:&quot; type=&quot;button&quot;&gt;&lt;/button&gt;&lt;button aria-disabled=&quot;false&quot; class=&quot;flex items-center justify-center text-token-text-primary juice:h-8 juice:w-8 dark:text-white juice:rounded-full focus-visible:outline-black dark:focus-visible:outline-white juice:mb-1 juice:ml-1.5&quot;&gt;&lt;svg viewBox=&quot;0 0 24 24&quot; fill=&quot;none&quot; height=&quot;24&quot; width=&quot;24&quot; xmlns=&quot;http://www.w3.org/2000/svg&quot;&gt;&lt;path clip-rule=&quot;evenodd&quot; d=&quot;M9 7a5 5 0 0 1 10 0v8a7 7 0 1 1-14 0V9a1 1 0 0 1 2 0v6a5 5 0 0 0 10 0V7a3 3 0 1 0-6 0v8a1 1 0 1 0 2 0V9a1 1 0 1 1 2 0v6a3 3 0 1 1-6 0z&quot; fill-rule=&quot;evenodd&quot; fill=&quot;currentColor&quot;&gt;&lt;/path&gt;&lt;/svg&gt;&lt;/button&gt;&lt;div data-state=&quot;closed&quot; aria-controls=&quot;radix-:r86:&quot; aria-expanded=&quot;false&quot; aria-haspopup=&quot;dialog&quot; type=&quot;button&quot;&gt;&lt;/div&gt;&lt;/div&gt;&lt;/div&gt;&lt;div class=&quot;flex min-w-0 flex-1 flex-col&quot;&gt;&lt;/div&gt;&lt;/div&gt;&lt;/div&gt;&lt;/div&gt;&lt;/div&gt;&lt;/div&gt;&lt;/div&gt;&lt;/div&gt;" style="text;strokeColor=none;fillColor=none;align=left;verticalAlign=middle;spacingLeft=4;spacingRight=4;overflow=hidden;points=[[0,0.5],[1,0.5]];portConstraint=eastwest;rotatable=0;whiteSpace=wrap;html=1;" vertex="1" parent="F-g1iZo4tE8lH147P08Y-6">
          <mxGeometry y="90" width="270" height="100" as="geometry" />
        </mxCell>
        <mxCell id="F-g1iZo4tE8lH147P08Y-13" style="edgeStyle=orthogonalEdgeStyle;rounded=0;orthogonalLoop=1;jettySize=auto;html=1;entryX=0.35;entryY=1.011;entryDx=0;entryDy=0;entryPerimeter=0;" edge="1" parent="WIyWlLk6GJQsqaUBKTNV-1" source="zkfFHV4jXpPFQw0GAbJ--6" target="zkfFHV4jXpPFQw0GAbJ--24">
          <mxGeometry relative="1" as="geometry" />
        </mxCell>
      </root>
    </mxGraphModel>
  </diagram>
</mxfile>
